<svg xmlns="http://www.w3.org/2000/svg" xml:space="preserve" viewBox="0 0 796.821 1122.567"><path fill-rule="evenodd" d="M396.85067787 287.7294171c151.52762118 0 274.36464742 122.83569291 274.36464742 274.36331409 0 151.53028784-122.83702624 274.36731408-274.36464742 274.36731408-151.53028784 0-274.36731408-122.83702624-274.36731408-274.36731408 0-151.52762118 122.83702624-274.36464742 274.36731408-274.36464742zm205.2261536 269.95265845h57.29185677c-2.35866077-142.97964255-118.97703589-258.16335459-262.5193437-258.16335459-143.54230781 0-260.16201626 115.18371204-262.5193437 258.16335459h57.89852192v12.61596846h-57.81452213c4.33598916 141.22098028 120.16503292 254.3726974 262.43667724 254.3726974 142.26897766 0 258.09668809-113.15171712 262.43401058-254.3726974h-57.20919031z"/><path d="m345.68547245 350.0892612 6.1066514 19.50795123c.69733159 2.22399444.81066464 4.33598916.34266581 6.3199842-.47199882 1.99466168-1.5066629 3.72399069-3.11199222 5.20798698-1.60532932 1.48399629-3.68799078 2.63066009-6.26265101 3.43599141-3.86932366 1.2133303-7.19064869 1.16266376-9.9599751-.15599961-2.76665975-1.31199672-4.68665495-3.6933241-5.76931891-7.1466488l-6.0799848-19.42395144 6.36531742-1.99332835 5.77731889 18.4532872c.73066484 2.32799418 1.73466233 3.88265696 3.00265916 4.67465498 1.27733014.79866467 2.99465918.85466453 5.15465378.17999955 2.08799478-.65466503 3.42932476-1.67732914 4.03065659-3.06265901.60133183-1.3866632.53466533-3.25065854-.19599951-5.5866527l-5.76665225-18.41728729zm-24.11193972 32.04658655c1.2399969 2.57066024 1.28133013 5.03732074.14933296 7.40798148-1.1333305 2.37066074-3.35465828 4.34932246-6.64931671 5.93598516-3.03465908 1.46266301-5.999985 2.1866612-8.8799778 2.16799458l-2.70132658-5.60531932c2.33199417-.06799983 4.25065604-.24799938 5.74798563-.53599866 1.49866292-.28799928 2.79599301-.69999825 3.89865692-1.23199692 1.32933001-.6399984 2.22266111-1.38132988 2.68399329-2.2266611.4666655-.84533122.4533322-1.7733289-.02533327-2.76932641a2.7466598 2.7466598 0 0 0-1.18133038-1.26266351c-.52399869-.28799928-1.18399704-.48666545-1.97999505-.59333185-.799998-.11333305-2.33866082-.16666625-4.6133218-.15066629-2.13732799.01599996-3.82265711-.13866632-5.0533207-.46933216a9.6933091 9.6933091 0 0 1-3.3466583-1.62932926c-1.00533082-.74266481-1.8266621-1.7866622-2.47066049-3.12132553-1.2133303-2.51732704-1.30933006-4.90932106-.29599926-7.1733154 1.01199747-2.26266101 3.02399244-4.11598971 6.03331825-5.56531942a18.533287 18.533287 0 0 1 4.48932211-1.51732954c1.51066289-.2933326 3.14932546-.47733214 4.92398769-.5466653l.31333255 5.6266526c-1.82132878.1066664-3.28532512.2799993-4.39332235.51199872a13.54263281 13.54263281 0 0 0-3.1066589 1.0399974c-1.14266381.54933196-1.8933286 1.23733024-2.24666105 2.06266151-.35599911.8266646-.32533252 1.67066249.08799978 2.52666035.25599936.53199867.60533182.93599766 1.0399974 1.20933031.43733224.2799993 1.0133308.46933216 1.72932901.58266521.71733154.11199972 2.31199422.16266626 4.7866547.14933296 3.27599181-.00799998 5.71065239.39066569 7.31464838 1.18933036 1.599996.80799798 2.84932621 2.12799468 3.7466573 3.9866567m-24.53060534 22.98527587-5.55198612 3.73865732-14.52663035-21.5732794-7.11198222 4.78932136-3.11332555-4.62265511 19.77461723-13.31730004 3.11332555 4.62398844-7.11064889 4.78798803zm-16.0666265 160.9195977 2.3066609-.22933276c.13999965.77199807.41866562 1.33599666.84266456 1.69999575.42266561.36133243.99199752.54266531 1.70932906.54266531.7599981 0 1.33333-.1599996 1.71732904-.48266546.38399904-.32266586.57733189-.69866492.57733189-1.13066384a1.0799973 1.0799973 0 0 0-.24266606-.70933156c-.1599996-.19333285-.44399889-.36266576-.84799788-.50399874-.27599931-.09866642-.90266441-.266666-1.88532862-.51333205-1.26399684-.31733254-2.15066129-.70399824-2.65999335-1.16533042-.71866487-.64666505-1.07599731-1.43599641-1.07599731-2.36532742 0-.59733184.16933291-1.1599971.50533207-1.6799958.33866582-.52266536.82399794-.91866437 1.45999635-1.19066369.63599841-.27199932 1.3999965-.40933231 2.29999425-.40933231 1.46532967 0 2.57066024.32399919 3.30932506.97733089.74266481.65199837 1.13066384 1.5199962 1.16799708 2.60799348l-2.3733274.08133313c-.10133308-.60533182-.31599921-1.0399974-.64666505-1.30399674s-.8266646-.39866567-1.48666295-.39866567c-.68266496 0-1.21733029.14266631-1.60266266.4266656a.86266451.86266451 0 0 0-.3733324.73066484c0 .27866597.11733304.51599871.35199912.71199822.29733259.2533327 1.01999745.51599871 2.16799458.78933136 1.14933046.26933266 1.99866167.55333195 2.5466603.84266456.55199862.29199927.98266421.68799828 1.2933301 1.19199702.31066589.50533207.4666655 1.12799718.4666655 1.866662 0 .67199832-.1866662 1.30133008-.5599986 1.88799528a3.3466583 3.3466583 0 0 1-1.58132938 1.3066634c-.68266496.28799928-1.5333295.42933226-2.55199362.42933226-1.48132963 0-2.61999345-.34133248-3.4133248-1.0266641-.79466468-.68133163-1.2666635-1.67732914-1.42132978-2.98532587zm13.2799668 3.79732384V558.1154078h2.3733274v11.72130403zm6.44931721 0V558.1154078h2.29732759l4.82398794 7.85464703v-7.85464703h2.19466118v11.72130403h-2.37199407l-4.75065479-7.70531407v7.7066474zm21.13994715-4.32132253 2.2933276.70399824c-.35199912 1.29066344-.93866432 2.24799438-1.75732894 2.87465948-.81866462.6266651-1.85599536.93866432-3.11332555.93866432-1.55866277 0-2.83865957-.53066534-3.84265706-1.59599601-.9999975-1.06399734-1.50266291-2.51732704-1.50266291-4.36532242 0-1.95066179.50399874-3.46799133 1.51199622-4.54798863 1.00533082-1.0799973 2.33199417-1.62132928 3.97465673-1.62132928 1.43466308 0 2.5999935.4266656 3.49465793 1.27466348.53466533.50133208.933331 1.22266361 1.199997 2.16266126l-2.33999415.55733194c-.13866632-.60533182-.42799893-1.08533062-.8666645-1.43732974-.44266556-.35199912-.97733089-.52666535-1.60532932-.52666535-.87066449 0-1.57732939.31066589-2.11732804.93599766-.54399864.62133178-.8133313 1.63066259-.8133313 3.02799243 0 1.4799963.266666 2.53466033.799998 3.16265876.533332.63066509 1.2266636.94399764 2.08132813.94399764.63066509 0 1.1733304-.1999995 1.6266626-.5999985.4533322-.40133233.77999805-1.02933076.97599756-1.88799528zm6.14531797 4.32132253V558.1154078h8.67597831v1.97999505h-6.30265091v2.60399349h5.86131868v1.98132838h-5.86131868v3.17465873h6.533317v1.98132838zm145.35430328-1.30399674v2.4933271h-9.76397559c.10399974-.94933096.42266561-1.84532872.95066429-2.6933266.52799868-.84666455 1.5733294-1.9733284 3.12932551-3.37599156 1.25466353-1.1333305 2.02266161-1.90132858 2.3066609-2.30266091.38266571-.55733194.57599856-1.1066639.57599856-1.6533292 0-.60133183-.16533292-1.06266401-.50133208-1.3866632-.33066584-.32399919-.79066469-.48533212-1.37732989-.48533212-.58133188 0-1.04133073.17066624-1.3866632.51066539-.34133248.33733249-.53733199.89999775-.59199852 1.68799578l-2.78132638-.266666c.16533292-1.48666295.68399829-2.55332695 1.55599611-3.199992.87333115-.64533172 1.96266176-.96933091 3.27199182-.96933091 1.43466308 0 2.56132693.37599906 3.38399154 1.12533052a3.63599091 3.63599091 0 0 1 1.22799693 2.79732634c0 .63466508-.11866637 1.23733024-.35199912 1.8133288-.23333275.5733319-.60533182 1.17066374-1.11599721 1.7999955-.33466583.41866562-.9466643 1.01733079-1.8266621 1.79866217-.88399779.78133138-1.44266306 1.29866342-1.67599581 1.55732944a4.61998845 4.61998845 0 0 0-.57199857.74933146zm7.7199807-11.64130423c1.40799648 0 2.5066604.48799878 3.30265841 1.46266301.94266431 1.15199712 1.41732979 3.066659 1.41732979 5.73598566 0 2.66666-.47733214 4.58265521-1.42799643 5.74798563-.78799803.96266426-1.88399529 1.44266306-3.2933251 1.44266306-1.4133298 0-2.55466028-.52666535-3.41999145-1.57999605-.8666645-1.0533307-1.29999675-2.93465933-1.29999675-5.63731924 0-2.6533267.47733214-4.56398859 1.42799643-5.72931901.78933136-.96133093 1.88532862-1.44266306 3.2933251-1.44266306zm0 2.23732774c-.3333325 0-.63066509.1066664-.88666445.31466588-.26133268.20533282-.46399884.57866522-.60533182 1.1199972-.18933286.69599826-.28533262 1.87332865-.28533262 3.52665785 0 1.65466253.08533312 2.79065969.2533327 3.40799148.17066624.61866512.38266571 1.03066409.6399984 1.23733024s.55199862.3066659.88399779.3066659.62933176-.10399974.88933111-.31333255c.25733269-.20533282.45999885-.57866522.60266516-1.11866387.18933286-.69066494.28399929-1.86532867.28399929-3.5199912 0-1.6533292-.08533312-2.78799303-.2533327-3.40665815-.16933291-.61866512-.38266571-1.03333075-.6399984-1.2399969a1.3599966 1.3599966 0 0 0-.88266446-.31466588zm12.41863562-2.23732774c1.40799648 0 2.5066604.48799878 3.30265841 1.46266301.94399764 1.15199712 1.41732979 3.066659 1.41732979 5.73598566 0 2.66666-.47733214 4.58265521-1.4266631 5.74798563-.78933136.96266426-1.88532862 1.44266306-3.2933251 1.44266306-1.4133298 0-2.55466028-.52666535-3.42132478-1.57999605-.8666645-1.0533307-1.29866342-2.93465933-1.29866342-5.63731924 0-2.6533267.47733214-4.56398859 1.4266631-5.72931901.78933136-.96133093 1.88532862-1.44266306 3.2933251-1.44266306zm0 2.23732774c-.33199917 0-.62933176.1066664-.88666445.31466588-.26133268.20533282-.46399884.57866522-.60533182 1.1199972-.18933286.69599826-.28399929 1.87332865-.28399929 3.52665785 0 1.65466253.08399979 2.79065969.2533327 3.40799148.16933291.61866512.38266571 1.03066409.6399984 1.23733024.25599936.20666615.55066529.3066659.88266446.3066659s.62933176-.10399974.88933111-.31333255c.25733269-.20533282.45999885-.57866522.60266516-1.11866387.18933286-.69066494.28399929-1.86532867.28399929-3.5199912 0-1.6533292-.08399979-2.78799303-.2533327-3.40665815-.16933291-.61866512-.38266571-1.03333075-.6399984-1.2399969a1.3599966 1.3599966 0 0 0-.88266446-.31466588zm7.61731429 8.17064624 2.69999325-.31733254c.08533312.666665.31466588 1.17733039.69066494 1.53066284a1.91332855 1.91332855 0 0 0 1.3599966.53066534c.5733319 0 1.0533307-.2133328 1.44532972-.63466508.38933236-.42266561.58533187-.99199752.58533187-1.71199572 0-.67599831-.1866662-1.21599696-.56266526-1.6133293a1.82132878 1.82132878 0 0 0-1.3733299-.59466518c-.35466578 0-.77733139.06933316-1.27199682.20266616l.30799923-2.1866612c.75199812.01999995 1.32266336-.13999965 1.7199957-.47599881.39466568-.3333325.59066519-.78266471.59066519-1.34132998 0-.47466548-.14533297-.85066454-.43599891-1.13599716-.29066594-.2799993-.67599831-.42266561-1.1599971-.42266561-.47733214 0-.88399779.1599996-1.21866362.48133213-.33866582.3199992-.54133198.78933136-.61599846 1.40399649l-2.55732694-.42266561c.17866622-.85599786.44666555-1.53999615.80799798-2.0533282.3599991-.51199872.86266451-.91333105 1.5066629-1.20799698a5.199987 5.199987 0 0 1 2.16399459-.4399989c1.36799658 0 2.46399384.42399894 3.28932511 1.27066349.6799983.6933316 1.02133078 1.4799963 1.02133078 2.35332745 0 1.23599691-.69599826 2.2266611-2.0933281 2.96399259.83199792.1733329 1.49466293.5599986 1.99599501 1.1599971.49733209.60266516.7466648 1.32933001.7466648 2.17999455 0 1.23333025-.4666655 2.28666095-1.39599651 3.15732544-.93066434.87066449-2.08799478 1.3066634-3.47465798 1.3066634-1.31333005 0-2.40266066-.36799908-3.2666585-1.10399724-.8666645-.7333315-1.36666325-1.69066244-1.50532957-2.8799928"/><path fill-rule="evenodd" d="M362.34409747 505.0355405v-12.23596941h80.27446598v69.36115993c0 16.28929261-9.733309 30.7599231-24.14260631 37.13724049.82266461-7.1333155.86266451-9.09997725.86266451-14.6799633 6.88398279-5.27198682 11.04397239-13.44263306 11.04397239-22.45727719V505.0355405zm26.9732659 95.733094c-16.29995925-5.33598666-27.98126338-20.74794813-27.98126338-38.60790348v-19.28795178h12.23596941c0 13.6799658-2.33599416 28.71459488 8.3199792 39.3732349a28.17726289 28.17726289 0 0 0 10.28264096 6.58265021c.07066649 6.0933181-1.58799603 9.3866432-2.85865952 11.93997015"/><path fill-rule="evenodd" d="M342.5854802 520.835501h69.28916011v69.36249326c0 11.22130528-4.55065529 21.38127988-11.90397024 28.73592816-7.35598161 7.35331495-17.51595621 11.90530357-28.73592816 11.90530357-11.22130528 0-21.38261321-4.55065529-28.73726149-11.9066369-7.35331495-7.35331495-11.90530357-17.51328955-11.90530357-28.7332615h12.23596941a28.3199292 28.3199292 0 0 0 8.3199792 20.08261646 28.31726254 28.31726254 0 0 0 20.08661645 8.3199792 28.31592921 28.31592921 0 0 0 20.08394979-8.3199792 28.3199292 28.3199292 0 0 0 8.3199792-20.08394979v-57.12519052h-57.0531907zm6.6933166-82.6531267-5.18798703-3.78399054a.48799878.48799878 0 0 0-.5866652 0l-5.18798703 3.78532387a.48933211.48933211 0 0 1-.58399854 0 .48799878.48799878 0 0 1-.17999955-.55466528l1.99732834-6.10531807a.49066544.49066544 0 0 0-.17999955-.55599861l-5.20398699-3.76532392a.48933211.48933211 0 0 1-.18133288-.55599861c.06799983-.20799948.2533327-.34266581.47333215-.34133248l6.42265061.01199997c.21866612 0 .40533232-.13599966.47199882-.34399914l1.9733284-6.11198472c.0666665-.20799948.2533327-.34266581.47199882-.34266581a.48933211.48933211 0 0 1 .47199882.34266581l1.9733284 6.11198472a.48933211.48933211 0 0 0 .47333215.34399914l6.42265061-.0133333c.21866612 0 .40399899.13466633.47199882.34266581a.48933211.48933211 0 0 1-.18133288.55599861l-5.20265366 3.76665725a.48933211.48933211 0 0 0-.18133288.55599861l1.99732834 6.10398474a.48666545.48666545 0 0 1-.18133288.55599861.48933211.48933211 0 0 1-.58266521-.00133333m33.20658365-8.81997795-5.18932036-3.78532387a.48799878.48799878 0 0 0-.58533187 0l-5.18932036 3.78532387a.48933211.48933211 0 0 1-.58266521 0 .48799878.48799878 0 0 1-.17999955-.55466528l1.99599501-6.10531807a.48933211.48933211 0 0 0-.17999955-.55599861l-5.20265366-3.76532392a.48933211.48933211 0 0 1-.18266621-.55599861c.06933316-.20799948.2533327-.34266581.47333215-.34133248l6.42265061.01199997c.21999945 0 .40533232-.13466633.47333215-.34399914l1.9733284-6.11198472c.0666665-.20799948.2533327-.34266581.47199882-.34266581a.48933211.48933211 0 0 1 .47199882.34266581l1.9733284 6.11198472a.48933211.48933211 0 0 0 .47199882.34399914l6.42265061-.0133333c.21866612 0 .40533232.13466633.47333215.34266581a.48933211.48933211 0 0 1-.18133288.55599861l-5.20398699 3.76665725a.48933211.48933211 0 0 0-.17999955.55599861l1.99599501 6.10398474a.48666545.48666545 0 0 1-.17999955.55599861.48933211.48933211 0 0 1-.58266521-.00133333m36.05990985-.12933301-5.18932036-3.7866572a.48799878.48799878 0 0 0-.58399854 0l-5.19065369 3.7866572a.49066544.49066544 0 0 1-.58266521 0 .48799878.48799878 0 0 1-.17999955-.55466528l1.99732834-6.10531807a.48933211.48933211 0 0 0-.18133288-.55599861l-5.20265366-3.76532392a.48933211.48933211 0 0 1-.18266621-.55599861c.06933316-.20799948.25466603-.34266581.47333215-.34133248l6.42265061.01199997c.21999945 0 .40533232-.13599966.47333215-.34399914l1.9733284-6.11198472c.0666665-.20799948.2533327-.34266581.47199882-.34266581a.48933211.48933211 0 0 1 .47199882.34266581l1.9733284 6.11198472a.48933211.48933211 0 0 0 .47333215.34399914l6.42131728-.0133333c.21999945 0 .40533232.13466633.47333215.34266581a.48933211.48933211 0 0 1-.18133288.55599861l-5.20265366 3.76532392a.48933211.48933211 0 0 0-.18133288.55733194l1.99732834 6.10398474a.48799878.48799878 0 0 1-.18133288.55599861.49066544.49066544 0 0 1-.58266521-.00133333m34.17858122 8.91197772-5.18798703-3.7866572a.48933211.48933211 0 0 0-.58533187 0l-5.18932036 3.7866572a.49066544.49066544 0 0 1-.58399854 0 .48799878.48799878 0 0 1-.17866622-.55466528l1.99599501-6.1066514a.48933211.48933211 0 0 0-.17999955-.55466528l-5.20398699-3.76532392a.49066544.49066544 0 0 1-.18133288-.55599861c.06799983-.20799948.2533327-.34266581.47333215-.34266581l6.42265061.0133333c.21866612 0 .40533232-.13599966.47333215-.34399914l1.9733284-6.11198472c.0666665-.20799948.2533327-.34399914.47199882-.34399914a.48799878.48799878 0 0 1 .47199882.34399914l1.9733284 6.11198472a.48933211.48933211 0 0 0 .47199882.34266581l6.42265061-.01199997c.21866612 0 .40533232.133333.47333215.34266581a.48933211.48933211 0 0 1-.18133288.55599861l-5.20398699 3.76532392a.49066544.49066544 0 0 0-.17999955.55733194l1.99599501 6.10398474a.48799878.48799878 0 0 1-.17999955.55466528.49066544.49066544 0 0 1-.58399854 0m29.89192527 14.88929611-5.18798703-3.78399054a.48799878.48799878 0 0 0-.58533187 0l-5.18932036 3.78532387a.48933211.48933211 0 0 1-.58399854 0 .48799878.48799878 0 0 1-.17866622-.55466528l1.99599501-6.1066514a.48933211.48933211 0 0 0-.17999955-.55466528l-5.20398699-3.76532392a.49066544.49066544 0 0 1-.18133288-.55599861c.06799983-.20799948.2533327-.34266581.47333215-.34133248l6.42265061.01199997c.21866612 0 .40533232-.13599966.47333215-.34399914l1.9733284-6.11198472c.0666665-.20799948.25199937-.34266581.47066549-.34266581a.48933211.48933211 0 0 1 .47199882.34266581l1.9733284 6.11198472a.48933211.48933211 0 0 0 .47333215.34399914l6.42265061-.0133333c.21866612 0 .40399899.133333.47333215.34266581a.49066544.49066544 0 0 1-.18266621.55599861l-5.20265366 3.76532392a.49066544.49066544 0 0 0-.17999955.55733194l1.99599501 6.10398474a.48799878.48799878 0 0 1-.17999955.55466528.49066544.49066544 0 0 1-.58399854 0m25.31193672 22.75860977-5.18932036-3.78399054a.48799878.48799878 0 0 0-.58533187 0l-5.18932036 3.78399054a.48933211.48933211 0 0 1-.58266521.00133333.48799878.48799878 0 0 1-.17999955-.55599861l1.99732834-6.10398474a.48933211.48933211 0 0 0-.18133288-.55733194l-5.20265366-3.76532392a.49066544.49066544 0 0 1-.18266621-.55466528c.06933316-.20799948.2533327-.34399914.47333215-.34266581l6.42265061.0133333c.21866612 0 .40666565-.13599966.47333215-.34399914l1.9733284-6.11198472c.0666665-.20933281.2533327-.34266581.47199882-.34266581.21866612 0 .40399899.133333.47199882.34266581l1.9733284 6.11198472a.48933211.48933211 0 0 0 .47199882.34266581l6.42265061-.01199997c.21999945 0 .40533232.133333.47333215.34266581a.49066544.49066544 0 0 1-.18133288.55466528l-5.20398699 3.76665725a.48933211.48933211 0 0 0-.17999955.55599861l1.99599501 6.10398474a.48666545.48666545 0 0 1-.17999955.55599861.48933211.48933211 0 0 1-.58266521 0m19.23061859 26.88259946-5.18798703-3.78532387a.48933211.48933211 0 0 0-.5866652 0l-5.18798703 3.78532387a.48933211.48933211 0 0 1-.58399854 0 .48799878.48799878 0 0 1-.17866622-.55466528l1.99599501-6.10531807a.48933211.48933211 0 0 0-.17999955-.55599861l-5.20398699-3.76532392a.48933211.48933211 0 0 1-.18133288-.55466528c.06799983-.20933281.2533327-.34399914.47333215-.34266581l6.42265061.01199997c.21866612 0 .40533232-.13466633.47199882-.34399914l1.9733284-6.11198472c.0666665-.20799948.2533327-.34266581.47199882-.34266581a.48933211.48933211 0 0 1 .47199882.34266581l1.9733284 6.11198472a.48933211.48933211 0 0 0 .47333215.34399914l6.42265061-.0133333c.21866612 0 .40399899.13466633.47333215.34399914a.48933211.48933211 0 0 1-.18266621.55466528l-5.20265366 3.76665725a.48933211.48933211 0 0 0-.18133288.55599861l1.99732834 6.10398474a.48799878.48799878 0 0 1-.18133288.55599861.48933211.48933211 0 0 1-.58266521-.00133333m13.09063394 32.16125293-5.18932036-3.78532387a.48799878.48799878 0 0 0-.58533187 0l-5.18932036 3.78532387a.48933211.48933211 0 0 1-.58266521 0 .48666545.48666545 0 0 1-.17999955-.55466528l1.99599501-6.10531807a.48933211.48933211 0 0 0-.17999955-.55599861l-5.20398699-3.76532392a.48933211.48933211 0 0 1-.18133288-.55599861c.06933316-.20799948.2533327-.34266581.47333215-.34133248l6.42265061.01199997c.21866612 0 .40533232-.13466633.47333215-.34399914l1.9733284-6.11198472c.0666665-.20799948.2533327-.34266581.47066549-.34266581a.48933211.48933211 0 0 1 .47333215.34266581l1.9733284 6.11198472a.48799878.48799878 0 0 0 .47199882.34399914l6.42265061-.0133333c.21866612 0 .40533232.133333.47333215.34266581a.48933211.48933211 0 0 1-.18133288.55599861l-5.20398699 3.76532392a.49066544.49066544 0 0 0-.17999955.55733194l1.99599501 6.10398474a.48666545.48666545 0 0 1-.17999955.55466528.48933211.48933211 0 0 1-.58266521 0m4.28665595 34.87457948-5.18798703-3.7866572a.48933211.48933211 0 0 0-.5866652 0l-5.18798703 3.7866572a.49066544.49066544 0 0 1-.58399854 0 .48799878.48799878 0 0 1-.17999955-.55599861l1.99732834-6.10398474a.48933211.48933211 0 0 0-.17999955-.55733194l-5.20398699-3.76532392a.48933211.48933211 0 0 1-.18133288-.55466528c.06799983-.20799948.2533327-.34399914.47333215-.34266581l6.42265061.01199997c.21866612 0 .40533232-.13466633.47333215-.34266581l1.9733284-6.11331805c.0666665-.20799948.25199937-.34266581.47066549-.34266581a.48933211.48933211 0 0 1 .47199882.34266581l1.9733284 6.11331805a.48933211.48933211 0 0 0 .47333215.34266581l6.42265061-.0133333c.21866612 0 .40399899.13599966.47333215.34399914a.48933211.48933211 0 0 1-.18266621.55466528l-5.20265366 3.76665725a.48933211.48933211 0 0 0-.17999955.55599861l1.99599501 6.10398474a.48799878.48799878 0 0 1-.17999955.55599861.48933211.48933211 0 0 1-.58399854 0m-3.8933236 35.1732454-5.18798703-3.78399054a.48799878.48799878 0 0 0-.5866652 0l-5.18798703 3.78532387a.48933211.48933211 0 0 1-.58399854 0 .48799878.48799878 0 0 1-.17866622-.55466528l1.99599501-6.10531807a.48933211.48933211 0 0 0-.17999955-.55733194l-5.20398699-3.76399059a.48933211.48933211 0 0 1-.18133288-.55599861c.06799983-.20799948.2533327-.34399914.47333215-.34266581l6.42265061.0133333c.21866612 0 .40533232-.13599966.47199882-.34399914l1.9733284-6.11198472c.0666665-.20799948.2533327-.34266581.47199882-.34266581a.48933211.48933211 0 0 1 .47333215.34266581l1.9733284 6.11198472a.48799878.48799878 0 0 0 .47199882.34266581l6.42265061-.01199997c.21866612 0 .40399899.133333.47333215.34266581a.48933211.48933211 0 0 1-.18266621.55599861l-5.20265366 3.76532392a.48933211.48933211 0 0 0-.17999955.55733194l1.99599501 6.10398474a.48666545.48666545 0 0 1-.17999955.55466528.48933211.48933211 0 0 1-.58399854 0m-11.85197037 32.7332515-5.18798703-3.78532387a.48799878.48799878 0 0 0-.58533187 0l-5.18932036 3.7866572a.48933211.48933211 0 0 1-.58266521 0 .48799878.48799878 0 0 1-.17999955-.55599861l1.99599501-6.10398474a.48933211.48933211 0 0 0-.17999955-.55733194l-5.20398699-3.76532392a.49066544.49066544 0 0 1-.18133288-.55466528c.06799983-.20933281.2533327-.34399914.47333215-.34266581l6.42265061.01199997c.21866612 0 .40533232-.13466633.47333215-.34266581l1.9733284-6.11331805c.0666665-.20799948.2533327-.34266581.47199882-.34266581a.48933211.48933211 0 0 1 .47199882.34266581l1.9733284 6.11331805a.48933211.48933211 0 0 0 .47199882.34266581l6.42265061-.0133333c.21866612 0 .40533232.13466633.47333215.34399914a.48933211.48933211 0 0 1-.18133288.55466528l-5.20398699 3.76665725a.48933211.48933211 0 0 0-.17999955.55599861l1.99599501 6.10398474a.48799878.48799878 0 0 1-.17999955.55599861.48933211.48933211 0 0 1-.58399854 0m-19.30395174 27.77059724-5.18798703-3.7866572a.48799878.48799878 0 0 0-.5866652 0l-5.18798703 3.7866572a.48933211.48933211 0 0 1-.58399854 0 .48799878.48799878 0 0 1-.17866622-.55466528l1.99599501-6.1066514a.48933211.48933211 0 0 0-.17999955-.55599861l-5.20398699-3.76399059a.49066544.49066544 0 0 1-.18133288-.55599861c.06799983-.20799948.2533327-.34266581.47333215-.34266581l6.42265061.0133333c.21866612 0 .40533232-.13599966.47333215-.34399914l1.9733284-6.11198472c.0666665-.20799948.25199937-.34266581.47066549-.34266581a.48933211.48933211 0 0 1 .47199882.34266581l1.9733284 6.11198472a.48933211.48933211 0 0 0 .47333215.34266581l6.42265061-.01199997c.21866612 0 .40399899.133333.47333215.34266581a.48933211.48933211 0 0 1-.18133288.55599861l-5.20398699 3.76532392a.48933211.48933211 0 0 0-.17999955.55599861l1.99599501 6.10398474a.48666545.48666545 0 0 1-.17999955.55599861.48933211.48933211 0 0 1-.58399854 0m-24.64260506 22.9732759-5.18798703-3.78399054a.48799878.48799878 0 0 0-.58533187 0l-5.18932036 3.78532387a.48933211.48933211 0 0 1-.58399854 0 .48799878.48799878 0 0 1-.17866622-.55466528l1.99599501-6.1066514a.48933211.48933211 0 0 0-.17999955-.55466528l-5.20398699-3.76532392a.48933211.48933211 0 0 1-.18133288-.55599861c.06799983-.20799948.2533327-.34266581.47333215-.34133248l6.42265061.01199997c.21866612 0 .40533232-.13599966.47333215-.34399914l1.9733284-6.11198472c.0666665-.20799948.25199937-.34266581.47066549-.34266581a.48933211.48933211 0 0 1 .47199882.34266581l1.9733284 6.11198472a.48933211.48933211 0 0 0 .47333215.34399914l6.42265061-.0133333c.21866612 0 .40399899.133333.47333215.34266581a.48933211.48933211 0 0 1-.18266621.55599861l-5.20265366 3.76665725a.48933211.48933211 0 0 0-.17999955.55599861l1.99599501 6.10398474a.48666545.48666545 0 0 1-.17999955.55466528.48933211.48933211 0 0 1-.58399854 0m-29.60659265 15.45196137-5.18798703-3.78399054a.48933211.48933211 0 0 0-.5866652 0l-5.18932036 3.78532387a.48933211.48933211 0 0 1-.58266521 0 .48799878.48799878 0 0 1-.17999955-.55466528l1.99732834-6.10531807a.48933211.48933211 0 0 0-.18133288-.55599861l-5.20265366-3.76532392a.48933211.48933211 0 0 1-.18133288-.55599861c.06799983-.20799948.2533327-.34266581.47199882-.34266581l6.42265061.0133333c.21999945 0 .40666565-.13599966.47333215-.34399914l1.9733284-6.11198472c.0666665-.20933281.2533327-.34399914.47199882-.34399914a.48933211.48933211 0 0 1 .47199882.34399914l1.9733284 6.11198472a.48933211.48933211 0 0 0 .47333215.34266581l6.42131728-.01199997c.21999945 0 .40533232.133333.47333215.34266581a.48933211.48933211 0 0 1-.18133288.55466528l-5.20265366 3.76665725a.49066544.49066544 0 0 0-.18133288.55733194l1.99732834 6.10398474a.48799878.48799878 0 0 1-.18133288.55466528.48933211.48933211 0 0 1-.58266521 0m-33.76258226 9.47864297-5.18932036-3.78532387a.48933211.48933211 0 0 0-.58533187 0l-5.18932036 3.78532387a.48933211.48933211 0 0 1-.58266521 0 .48799878.48799878 0 0 1-.17999955-.55466528l1.99732834-6.10531807a.48933211.48933211 0 0 0-.18133288-.55599861l-5.20265366-3.76532392a.48933211.48933211 0 0 1-.18133288-.55599861c.0666665-.20799948.2533327-.34266581.47333215-.34133248l6.42131728.01199997c.21999945 0 .40666565-.13599966.47333215-.34399914l1.9733284-6.11198472c.0666665-.20799948.2533327-.34266581.47199882-.34266581a.48933211.48933211 0 0 1 .47199882.34266581l1.9733284 6.11198472a.48933211.48933211 0 0 0 .47333215.34399914l6.42131728-.0133333c.21999945 0 .40533232.13466633.47333215.34266581a.48933211.48933211 0 0 1-.18133288.55599861l-5.20398699 3.76665725a.49066544.49066544 0 0 0-.17999955.55599861l1.99732834 6.10398474a.48799878.48799878 0 0 1-.18133288.55599861.48933211.48933211 0 0 1-.58266521-.00133333m-35.84391039.5199987-5.18798703-3.7866572a.48799878.48799878 0 0 0-.5866652 0l-5.18932036 3.7866572a.48933211.48933211 0 0 1-.58266521 0 .48799878.48799878 0 0 1-.17999955-.55599861l1.99732834-6.10531807a.48933211.48933211 0 0 0-.18133288-.55599861l-5.20265366-3.76532392a.49066544.49066544 0 0 1-.18133288-.55466528c.06799983-.20933281.2533327-.34399914.47333215-.34266581l6.42131728.0133333c.21999945 0 .40666565-.13599966.47333215-.34399914l1.9733284-6.11198472c.0666665-.20933281.2533327-.34399914.47199882-.34399914.21866612 0 .40533232.13466633.47199882.34399914l1.9733284 6.11198472a.48933211.48933211 0 0 0 .47333215.34266581l6.42265061-.01199997c.21866612 0 .40399899.133333.47333215.34266581a.49066544.49066544 0 0 1-.18266621.55466528l-5.20265366 3.76665725a.48933211.48933211 0 0 0-.18133288.55599861l1.99732834 6.10398474a.48799878.48799878 0 0 1-.17999955.55599861.48933211.48933211 0 0 1-.58399854 0m-34.28524762-8.0533132-5.18932036-3.78399054a.48799878.48799878 0 0 0-.5866652 0l-5.18798703 3.78532387a.48933211.48933211 0 0 1-.58399854 0 .48799878.48799878 0 0 1-.17999955-.55466528l1.99732834-6.1066514a.48933211.48933211 0 0 0-.17999955-.55466528l-5.20398699-3.76532392a.48933211.48933211 0 0 1-.18133288-.55599861c.06799983-.20799948.2533327-.34266581.47333215-.34266581l6.42265061.0133333c.21866612 0 .40533232-.13599966.47333215-.34399914l1.97199507-6.11198472c.0666665-.20799948.2533327-.34266581.47199882-.34266581a.48933211.48933211 0 0 1 .47199882.34266581l1.9733284 6.11198472a.48933211.48933211 0 0 0 .47333215.34266581l6.42265061-.01199997c.21866612 0 .40399899.133333.47199882.34266581a.48933211.48933211 0 0 1-.18133288.55599861l-5.20265366 3.76532392a.48933211.48933211 0 0 0-.18133288.55733194l1.99732834 6.10398474a.48666545.48666545 0 0 1-.17999955.55466528.48933211.48933211 0 0 1-.58399854 0m-29.81592546-15.92529352-5.18932036-3.78532387a.48799878.48799878 0 0 0-.58533187 0l-5.18932036 3.78532387a.48933211.48933211 0 0 1-.58266521 0 .48799878.48799878 0 0 1-.17999955-.55466528l1.99732834-6.10531807a.48933211.48933211 0 0 0-.18133288-.55599861l-5.20265366-3.76532392a.49066544.49066544 0 0 1-.18266621-.55599861c.06933316-.20799948.2533327-.34266581.47333215-.34133248l6.42265061.01199997c.21999945 0 .40533232-.13466633.47333215-.34399914l1.9733284-6.11198472c.0666665-.20799948.2533327-.34266581.47199882-.34266581a.48933211.48933211 0 0 1 .47199882.34266581l1.9733284 6.11198472a.48933211.48933211 0 0 0 .47199882.34399914l6.42265061-.0133333c.21999945 0 .40533232.13466633.47333215.34266581a.49066544.49066544 0 0 1-.18133288.55599861l-5.20398699 3.76665725a.48933211.48933211 0 0 0-.17999955.55599861l1.99599501 6.10398474a.48799878.48799878 0 0 1-.17999955.55599861.48933211.48933211 0 0 1-.58266521-.00133333m-25.75060229-22.02261161-5.18798703-3.7866572a.48666545.48666545 0 0 0-.5866652 0l-5.18798703 3.7866572a.48933211.48933211 0 0 1-.58399854 0 .48799878.48799878 0 0 1-.17999955-.55466528l1.99732834-6.1066514a.48933211.48933211 0 0 0-.18133288-.55466528l-5.20265366-3.76532392a.49066544.49066544 0 0 1-.18133288-.55599861c.06799983-.20799948.2533327-.34266581.47333215-.34133248l6.42131728.01199997c.21999945 0 .40666565-.13599966.47333215-.34399914l1.9733284-6.11198472c.0666665-.20799948.2533327-.34266581.47199882-.34266581a.48933211.48933211 0 0 1 .47199882.34266581l1.9733284 6.11198472a.48933211.48933211 0 0 0 .47333215.34399914l6.42265061-.0133333c.21866612 0 .40399899.133333.47333215.34266581a.49066544.49066544 0 0 1-.18266621.55599861l-5.20265366 3.76532392a.48933211.48933211 0 0 0-.18133288.55733194l1.99732834 6.10398474a.48666545.48666545 0 0 1-.17999955.55466528.48933211.48933211 0 0 1-.58399854 0m-19.48395129-27.6665975-5.18932036-3.78532387a.48799878.48799878 0 0 0-.58399854 0l-5.19065369 3.78532387a.49066544.49066544 0 0 1-.58266521 0 .48799878.48799878 0 0 1-.17999955-.55466528l1.99732834-6.10531807a.48933211.48933211 0 0 0-.18133288-.55599861l-5.20265366-3.76532392a.48933211.48933211 0 0 1-.18266621-.55599861c.06933316-.20799948.25466603-.34266581.47333215-.34133248l6.42265061.01199997c.21999945 0 .40666565-.13599966.47333215-.34399914l1.9733284-6.11198472c.0666665-.20799948.2533327-.34266581.47199882-.34266581a.48933211.48933211 0 0 1 .47199882.34266581l1.9733284 6.11198472a.48933211.48933211 0 0 0 .47333215.34399914l6.42131728-.0133333c.21999945 0 .40533232.13466633.47333215.34266581a.48933211.48933211 0 0 1-.18133288.55599861l-5.20265366 3.76665725a.48933211.48933211 0 0 0-.18133288.55599861l1.99732834 6.10398474a.48799878.48799878 0 0 1-.18133288.55599861.49066544.49066544 0 0 1-.58266521-.00133333m-12.59863517-31.82392044-5.18932036-3.78399054a.48933211.48933211 0 0 0-.58533187 0l-5.18932036 3.78399054a.48933211.48933211 0 0 1-.58266521.00133333.48799878.48799878 0 0 1-.17999955-.55466528l1.99732834-6.1066514a.48933211.48933211 0 0 0-.18133288-.55466528l-5.20265366-3.76665725a.48933211.48933211 0 0 1-.18266621-.55466528c.06799983-.20799948.2533327-.34266581.47333215-.34266581l6.42265061.0133333c.21866612 0 .40533232-.13599966.47333215-.34399914l1.9733284-6.11198472c.0666665-.20933281.2533327-.34399914.47199882-.34399914a.48799878.48799878 0 0 1 .47199882.34399914l1.9733284 6.11198472a.48933211.48933211 0 0 0 .47199882.34266581l6.42265061-.01199997c.21999945 0 .40533232.133333.47333215.34266581a.48933211.48933211 0 0 1-.18133288.55466528l-5.20398699 3.76665725a.48933211.48933211 0 0 0-.17999955.55733194l1.99599501 6.10398474a.48799878.48799878 0 0 1-.17999955.55466528.49066544.49066544 0 0 1-.58399854 0m-4.80932131-34.533247-5.18932036-3.78532387a.48799878.48799878 0 0 0-.58399854 0l-5.19065369 3.7866572a.48933211.48933211 0 0 1-.58266521 0 .48799878.48799878 0 0 1-.17999955-.55599861l1.99732834-6.10531807a.48933211.48933211 0 0 0-.18133288-.55599861l-5.20265366-3.76532392a.49066544.49066544 0 0 1-.18133288-.55599861c.0666665-.20799948.2533327-.34266581.47199882-.34133248l6.42265061.01199997c.21999945 0 .40666565-.13466633.47333215-.34399914l1.9733284-6.11198472c.0666665-.20799948.2533327-.34266581.47199882-.34266581a.48933211.48933211 0 0 1 .47199882.34266581l1.9733284 6.11198472a.48933211.48933211 0 0 0 .47333215.34399914l6.42265061-.0133333c.21866612 0 .40399899.13466633.47199882.34266581a.49066544.49066544 0 0 1-.18133288.55599861l-5.20265366 3.76665725a.48933211.48933211 0 0 0-.18133288.55599861l1.99732834 6.10398474a.48666545.48666545 0 0 1-.18133288.55599861.48933211.48933211 0 0 1-.58266521 0m4.12398969-35.90924356-5.18798703-3.78532387a.48799878.48799878 0 0 0-.5866652 0l-5.18798703 3.78532387a.49066544.49066544 0 0 1-.58399854 0 .48799878.48799878 0 0 1-.17999955-.55466528l1.99732834-6.10531807a.48933211.48933211 0 0 0-.18133288-.55599861l-5.20265366-3.76532392a.48933211.48933211 0 0 1-.18133288-.55599861c.06799983-.20799948.2533327-.34266581.47333215-.34266581l6.42131728.0133333c.21999945 0 .40666565-.13599966.47333215-.34399914l1.9733284-6.11198472c.0666665-.20799948.2533327-.34399914.47199882-.34399914a.48933211.48933211 0 0 1 .47199882.34399914l1.9733284 6.11198472a.48933211.48933211 0 0 0 .47333215.34266581l6.42265061-.01199997c.21866612 0 .40399899.13466633.47199882.34266581a.48933211.48933211 0 0 1-.18133288.55599861l-5.20265366 3.76532392a.49066544.49066544 0 0 0-.18133288.55733194l1.99732834 6.10398474a.48799878.48799878 0 0 1-.18133288.55599861.48933211.48933211 0 0 1-.58266521-.00133333m12.0266366-32.12791968-5.18798703-3.7866572a.48799878.48799878 0 0 0-.5866652 0l-5.18798703 3.7866572a.48933211.48933211 0 0 1-.58399854 0 .48799878.48799878 0 0 1-.17866622-.55466528l1.99599501-6.10531807a.48933211.48933211 0 0 0-.17999955-.55599861l-5.20398699-3.76532392a.48933211.48933211 0 0 1-.18133288-.55599861c.06799983-.20799948.2533327-.34266581.47333215-.34133248l6.42265061.01199997c.21866612 0 .40533232-.13599966.47333215-.34399914l1.9733284-6.11198472c.0666665-.20799948.25199937-.34266581.47066549-.34266581a.48933211.48933211 0 0 1 .47333215.34266581l1.9733284 6.11198472a.48799878.48799878 0 0 0 .47199882.34399914l6.42265061-.0133333c.21866612 0 .40399899.133333.47333215.34266581a.48933211.48933211 0 0 1-.18133288.55599861l-5.20398699 3.76665725a.48933211.48933211 0 0 0-.17999955.55599861l1.99599501 6.10398474a.48666545.48666545 0 0 1-.17999955.55466528.48933211.48933211 0 0 1-.58399854 0m19.36128493-28.45592886-5.18932036-3.7866572a.48799878.48799878 0 0 0-.58533187 0l-5.18932036 3.7866572a.48933211.48933211 0 0 1-.58266521 0 .48799878.48799878 0 0 1-.17999955-.55466528l1.99732834-6.10531807a.48933211.48933211 0 0 0-.18133288-.55599861l-5.20265366-3.76532392a.48933211.48933211 0 0 1-.18133288-.55599861c.0666665-.20799948.2533327-.34266581.47199882-.34266581l6.42265061.0133333c.21999945 0 .40666565-.13599966.47333215-.34399914l1.9733284-6.11198472c.0666665-.20799948.2533327-.34266581.47199882-.34266581a.48933211.48933211 0 0 1 .47199882.34266581l1.9733284 6.11198472a.48933211.48933211 0 0 0 .47199882.34399914l6.42265061-.0133333c.21999945 0 .40533232.133333.47333215.34266581a.48933211.48933211 0 0 1-.18133288.55599861l-5.20398699 3.76532392a.49066544.49066544 0 0 0-.17999955.55733194l1.99732834 6.10398474a.48666545.48666545 0 0 1-.18133288.55466528.48933211.48933211 0 0 1-.58266521 0m24.55727194-22.21861112-5.18798703-3.7866572a.48799878.48799878 0 0 0-.58533187 0l-5.18932036 3.7866572a.49066544.49066544 0 0 1-.58399854 0 .48799878.48799878 0 0 1-.17866622-.55599861l1.99599501-6.10398474a.48933211.48933211 0 0 0-.17999955-.55733194l-5.20398699-3.76532392a.48933211.48933211 0 0 1-.18133288-.55466528c.06799983-.20933281.2533327-.34399914.47333215-.34266581l6.42265061.01199997c.21866612 0 .40533232-.13466633.47333215-.34266581l1.9733284-6.11331805c.0666665-.20799948.25199937-.34266581.47066549-.34266581a.48933211.48933211 0 0 1 .47199882.34266581l1.9733284 6.11331805a.48933211.48933211 0 0 0 .47333215.34266581l6.42265061-.0133333c.21866612 0 .40399899.13466633.47333215.34399914a.48933211.48933211 0 0 1-.18266621.55466528l-5.20265366 3.76665725a.48933211.48933211 0 0 0-.17999955.55599861l1.99599501 6.10398474a.48799878.48799878 0 0 1-.17999955.55599861.48933211.48933211 0 0 1-.58399854 0"/><path d="m275.27631514 421.4090829-20.05594986-24.39593901 5.17065374-4.24932271 20.05594986 24.39460568zm-6.60131683 18.52795368c-1.07066399 1.066664-2.1199947 1.88399529-3.13199217 2.45599386l-3.93865682-3.95332345c1.01733079-.60933181 1.86799533-1.24799688 2.53732699-1.91466188 1.04399739-1.0399974 1.46266301-2.10266141 1.2666635-3.19732534-.19599951-1.09466393-.97999755-2.3333275-2.35332745-3.71065739l-20.88528112-20.96261426 4.74132148-4.72398819 20.85861452 20.93594766c2.60132683 2.61199347 3.98932336 5.19332035 4.15732294 7.74264731.16666625 2.5599936-.91733104 5.00265416-3.25199187 7.32931501m-37.45990635 36.94124098-27.92793018-14.74396314 3.12399219-5.9199852 27.92926351 14.74396314zm-4.20398949-51.36653825 16.85062454 11.5733044c1.9199952 1.3199967 3.31332505 2.91065939 4.17065624 4.7599881.85999785 1.86132868 1.11466388 3.85999035.76799808 6.01865162-.3466658 2.15866127-1.27733014 4.3466558-2.80399299 6.57065024-2.29599426 3.34132498-4.93865432 5.35465328-7.93198017 6.0266516-2.9866592.67599831-5.96531842-.01066664-8.94931096-2.05999485l-16.77862472-11.52263786 3.77732389-5.49998625 15.93996015 10.9466393c2.01066164 1.38266321 3.76132393 1.98532837 5.24798688 1.82532877 1.49732959-.16133293 2.88265946-1.17733039 4.16398959-3.04265906 1.2399969-1.80399549 1.66266251-3.43599141 1.2799968-4.89732109-.38133238-1.46132968-1.58532937-2.88665945-3.60265766-4.27332265l-15.90929356-10.92530602zm4.22265611 73.70114908c-.5866652 1.39332985-1.24666355 2.5466603-1.96666175 3.45999135l-5.14398714-2.16266126c.71066489-.94933096 1.2533302-1.86399534 1.61999595-2.7333265.57199857-1.3599966.55599861-2.50132708-.0399999-3.4399914-.59866517-.93866432-1.79332885-1.7866622-3.5866577-2.53999365l-27.2799318-11.466638 2.59332685-6.16931791 27.24526522 11.45197137c3.39865817 1.42799643 5.66131918 3.29065844 6.78398304 5.5866527 1.12666385 2.30399424 1.05066404 4.97465423-.2266661 8.0133133m336.65915835-10.57197357 20.3599491-16.0399599-.06933316-.17733289c-4.60398849 2.07466148-7.68798078 3.41865812-9.25597686 4.02532327l-13.70129908 5.30265341-2.1599946-5.58131938 29.45059304-11.3999715 3.2933251 8.50397874-19.8266171 15.68129413.04666655.12399969 25.3866032-1.3199967 3.28799178 8.49597876-29.45192637 11.3999715-2.2533277-5.82265211 13.94129848-5.39598651c.6533317-.2533327 1.42266311-.533332 2.28932761-.84666455.8666645-.31199922 3.18532537-1.1066639 6.95064929-2.38266071l-.06799983-.17866622-26.00660165 1.33066334zm17.56528942-36.37724239L568.264916 463.32364478c-1.9599951 1.26133018-3.96665675 1.92932851-6.00398499 2.00399499-2.04799488.07333315-3.99065669-.4666655-5.84665205-1.62132928s-3.51332455-2.85865952-4.9733209-5.12798718c-2.19332785-3.41065814-3.0266591-6.6266501-2.48799378-9.64530922.533332-3.01599246 2.3199942-5.49731959 5.36398659-7.45598136l17.11729054-11.01197247 3.61065764 5.61198597-16.26262601 10.45997385c-2.0533282 1.3199967-3.28665845 2.70132658-3.71465738 4.133323-.43066559 1.44399639-.03066659 3.11465888 1.19333035 5.01865412 1.18533037 1.8399954 2.52666035 2.86265951 4.02132328 3.07465898 1.49599626.2133328 3.27599181-.34399914 5.33332-1.66799583l16.23195942-10.44130723zM547.864967 437.43704283c-2.13999465 1.88666195-4.50398874 2.59332685-7.0933156 2.14132798-2.5866602-.45199887-5.09198727-2.05732819-7.50798123-4.80132133-2.2266611-2.52799368-3.72399069-5.18798703-4.48265546-7.96798008l4.66932166-4.11198972c.6933316 2.2266611 1.38532987 4.0266566 2.0666615 5.39065319.6799983 1.36532992 1.4266631 2.50399374 2.23599441 3.42265811.97599756 1.1066639 1.93066184 1.76799558 2.86799283 1.98399504.94133098.22133278 1.83066209-.0399999 2.65999335-.77199807.4666655-.40933231.76799808-.90133108.89866442-1.47866297.13599966-.58133188.14933296-1.26933016.03733324-2.0666615-.1066664-.799998-.47066549-2.29599426-1.09999725-4.48265546-.59066519-2.0533282-.89733109-3.71865737-.91066439-4.99332085-.0133333-1.27466348.21066614-2.4933271.666665-3.66132418.44399889-1.16799708 1.2266636-2.2399944 2.33999415-3.21999195 2.09599476-1.84666205 4.3733224-2.58532687 6.8266496-2.21999445 2.4533272.36399909 4.77998805 1.80132883 6.9866492 4.30798923 1.08666395 1.23333025 1.97599506 2.533327 2.67065999 3.91465688a32.47458548 32.47458548 0 0 1 1.85599536 4.59332185l-5.33332 1.81866212c-.59599851-1.72399569-1.15733044-3.08665895-1.67866247-4.09065644a13.5599661 13.5599661 0 0 0-1.83866207-2.71332655c-.83733124-.95066429-1.70266241-1.48666295-2.59332685-1.60532932-.89066444-.1199997-1.69599576.13733299-2.40932731.76533142a2.84532622 2.84532622 0 0 0-.88399779 1.32933001c-.15066629.49599876-.17866622 1.09999725-.0933331 1.82132878.08399979.7199982.4666655 2.26932766 1.1466638 4.64798838.89066444 3.15465878 1.16399709 5.60531932.8266646 7.36531492-.3466658 1.7599956-1.2799968 3.3199917-2.83065959 4.68265496m-27.76793058-32.38791903-7.81598046 9.26264351-5.11465388-4.31732254 20.36794908-24.13460633 7.03064909 5.9333185c3.2799918 2.76665975 5.19732034 5.40798648 5.76131893 7.92931351.56933191 2.52532702-.17733289 4.9999875-2.2266611 7.42798143-1.199997 1.41999645-2.6533267 2.35466078-4.3733224 2.80265966-1.70799573.44933221-3.54399114.38399904-5.50265291-.19733284-.95066429 8.48797878-1.5466628 13.99329835-1.78399554 16.50395874l-5.6799858-4.79198802 2.05866152-14.12129803zm3.50932456-4.15732294 1.65066254 1.39332985c1.61732929 1.36399659 3.0399924 2.10132808 4.26265601 2.20799448 1.22399694.11599971 2.32399419-.41199897 3.29865842-1.56666275.96533092-1.14399714 1.25999685-2.2933276.88666445-3.43865807-.37999905-1.15066379-1.39332985-2.41999395-3.04399239-3.8133238l-1.54932946-1.3066634zm-21.97594506 5.36931991-15.4532947-9.58930936 16.6532917-26.83459958 15.4532947 9.58930936-2.8933261 4.66132168-9.76530892-6.05998485-3.66132418 5.89998525 9.08264396 5.63598591-2.8933261 4.65998835-9.08131063-5.63598591-4.29198927 6.91464938 9.76530892 6.06131818zm-12.53463533-43.18922536 6.19598451 2.7066599-22.47594381 24.64527172-6.6933166-2.92265936 2.82132628-33.22925026 6.19465118 2.70532657-2.07466148 19.599951a75.68514412 75.68514412 0 0 1-.6133318 3.96265676c-.26799933 1.49999625-.47599881 2.52666035-.62399844 3.08932561.67199832-1.15466378 2.09199477-3.05999235 4.26398934-5.73198567zm-43.35855827 17.72662235 8.37997905-30.44925721 6.4533172 1.77599556-8.37997905 30.44925721zm-7.46931466-2.44932721-8.37997905-1.46399634-9.4266431-25.89993525-.18933286-.03333325c-.45733219 4.20798948-.83733124 7.19464868-1.1466638 8.96664425l-2.55599361 14.6399634-5.89731859-1.02933076 5.43331975-31.11058889 8.32264586 1.4533297 9.43730974 25.66260251.15199962.0266666c.48799878-4.08265646.88666445-6.96131593 1.17866372-8.63197842l2.57199357-14.72796318 5.9333185 1.03599741zm-36.06790983-36.16390959.42133228 20.43728224c.04933321 2.32932751-.43199892 4.38798903-1.43466308 6.16398459-1.01066414 1.78399554-2.48666045 3.15599211-4.44265556 4.133323-1.95599511.97599756-4.27465598 1.49599626-6.9733159 1.55066279-4.0533232.08399979-7.22931526-.88933111-9.5199762-2.92932601-2.29066094-2.03199492-3.46932466-4.8533212-3.54532447-8.47197882l-.41866562-20.34928246 6.66931666-.13733299.399999 19.33195167c.04933321 2.4399939.57999855 4.2133228 1.57732939 5.32798668 1.00266416 1.12266386 2.63599341 1.65599586 4.89865442 1.60932931 2.18932786-.04533322 3.76132393-.6533317 4.72665485-1.81599546.96399759-1.16266376 1.41999645-2.97065924 1.36932991-5.41865312l-.39733234-19.29461843zM207.77915055 680.42710202l5.4799863-5.80531882-5.79198552-10.1599746-7.78398054 1.76666225-3.63065759-6.36798408 33.58924936-6.1199847 4.11732304 7.21864862-22.35327745 25.82926876zm9.63197592-10.04264156c4.9466543-5.2933201 7.7466473-8.28797928 8.399979-8.97064424.65466503-.68266496 1.18266371-1.20799698 1.58266271-1.56532942-1.866662.50399874-6.5733169 1.59332935-14.1199647 3.27599181zm39.50523457 22.49861042-16.30795923 12.8533012c-1.85866202 1.46399634-3.82265711 2.3333275-5.87598531 2.60799348-2.06399484.27199932-4.0799898-.08266646-6.06798483-1.07066399-1.98932836-.9866642-3.82932376-2.54932696-5.52665285-4.70132158-2.54932696-3.23465858-3.70265741-6.40531732-3.4533247-9.51064289.24666605-3.10132558 1.81199547-5.78398554 4.69865492-8.05997985l16.23729274-12.79596801 4.19465618 5.32265336-15.4266281 12.15730294c-1.9466618 1.5333295-3.05865902 3.04932571-3.35199162 4.53865532-.29466593 1.50132958.27066599 3.15065879 1.6933291 4.95732094 1.37732989 1.7466623 2.83199292 2.64932671 4.36532242 2.7199932 1.5333295.06799983 3.27732514-.66799833 5.22932026-2.20666115l15.39729484-12.133303zm-8.45731219 35.39591151-4.90398774-4.70932156 18.29728759-19.0532857-6.2799843-6.03198492 3.9199902-4.08265646 17.466623 16.7732914-3.92265686 4.08265646-6.2799843-6.03198492zm34.26124768 25.19593701-5.7066524-3.6533242 7.46131468-11.6533042-10.69463993-6.84798288-7.46131468 11.6533042-5.72665235-3.6666575 17.29595676-27.0132658 5.72665235 3.6666575-6.78264971 10.59330685 10.6933066 6.84664955 6.78398304-10.59330685 5.7066524 3.6533242zm26.19726784 12.59863517-16.8666245-7.52931451 13.07330065-29.29192677 16.8666245 7.52931451-2.26932766 5.08665395-10.65997335-4.75732144-2.87465948 6.4399839 9.91464188 4.4266556-2.27066099 5.08665395-9.91464188-4.4266556-3.36932491 7.54931446 10.65997335 4.75865477zm35.86924366 12.02263661-8.33064584-2.29199427-7.01998245-27.09993225-.1866662-.05066654c-.87199782 4.20932281-1.54532947 7.19198202-2.02932826 8.95464428l-4.00398999 14.55329695-5.86265201-1.6133293 8.50931206-30.92658935 8.27331265 2.27599431 7.0533157 26.86126618.15199962.04133323c.89066444-4.0799898 1.57066274-6.95331595 2.02799493-8.6133118l4.02798993-14.6399634 5.89865192 1.62266261zm22.77727639 4.10265641-6.75064979-.80266466 3.12265886-26.23060109-8.64797838-1.02933076.66933166-5.62131928 24.04527322 2.86132618-.66933166 5.62131928-8.64664505-1.02933076zm16.39729234 1.34132998 1.06933066-32.05991985 6.79464968.2266661-1.06799733 32.05858652zm29.03192742-27.36793158c-2.55199362.19466618-4.45065554 1.30133008-5.70798573 3.32665835-1.24933021 2.0266616-1.7466623 4.75198812-1.48532962 8.17864622.54399864 7.13064884 3.48932461 10.49464043 8.84131123 10.08664145 2.2399944-.17066624 4.92265436-.93866432 8.02531327-2.30932756l.43333225 5.68798578c-2.53732699 1.29866342-5.42931976 2.0666615-8.66131168 2.31466088-4.65198837.35466578-8.31331255-.7866647-10.99197252-3.41999145-2.6799933-2.63332675-4.22132278-6.59331685-4.62398844-11.87197032-.2533327-3.32265836.12933301-6.2799843 1.1466638-8.87331115 1.01999745-2.59332685 2.6133268-4.64532172 4.7733214-6.15465128 2.16799458-1.50932956 4.7733214-2.37599406 7.82131378-2.60932681 3.1066589-.23599941 6.27598431.2799993 9.52664285 1.54132948l-1.76799558 5.67598581c-1.23733024-.47599881-2.47599381-.87733114-3.7199907-1.21066364a10.72263986 10.72263986 0 0 0-3.60932431-.36266576zm46.62121678 8.83331125c.7866647 2.78799303.39733234 5.26398684-1.15199712 7.43731474-1.54932946 2.1733279-4.1199897 3.76132393-7.6933141 4.77065474-3.2933251.93066434-6.3866507 1.13466383-9.2666435.60933181l-1.71599571-6.08131813c2.34532747.34133248 4.29598926.49866542 5.84398539.47333215 1.54932946-.02533327 2.9199927-.21066614 4.11732304-.54799863 1.4399964-.40666565 2.4666605-.99199752 3.07599231-1.75599561.61599846-.76533142.76533142-1.6933291.45999885-2.77465973a2.78799303 2.78799303 0 0 0-.9599976-1.47199632c-.47333215-.37999905-1.09866392-.6933316-1.87599531-.94133098-.77999805-.2533327-2.31066089-.57599856-4.58932186-.9599976-2.13999465-.3599991-3.7999905-.80933131-4.9733209-1.35732994-1.1733304-.5466653-2.19199452-1.28799678-3.06132568-2.21599446-.87466448-.9199977-1.51332955-2.10932806-1.92266186-3.55732444-.77199807-2.73199317-.44799888-5.14132048.96266426-7.22798193 1.40932981-2.08666145 3.74799063-3.5866577 7.0133158-4.50932206 1.60532932-.4533322 3.1866587-.69733159 4.75732144-.72933151a32.87591781 32.87591781 0 0 1 5.02132078.31733254l-.67466498 5.68398579c-1.8399954-.21199947-3.33599166-.29466593-4.48398879-.25866602-1.15599711.03866657-2.2533277.1999995-3.29199177.4933321-1.2399969.35066579-2.10932806.9066644-2.60932681 1.67066249-.49999875.76399809-.61733179 1.6133293-.35599911 2.54399364.16399959.57599856.44266556 1.04133073.82933126 1.39199652.38933236.35733244.92933101.64666505 1.6266626.88666445.69866492.23866607 2.28532762.56799858 4.76265476.98933086 3.2799918.56799858 5.64398589 1.39332985 7.10931556 2.47332715 1.45866302 1.09066394 2.47732714 2.63066009 3.04665905 4.64798838zm13.63063259-24.24260606c-2.39066069.91866437-3.89199027 2.52266036-4.51598871 4.82398794-.61599846 2.29866092-.31199922 5.0533207.9199977 8.25997935 2.56666025 6.67598331 6.35198412 9.05464403 11.36263826 7.12931551 2.09732809-.80533132 4.44665555-2.31066089 7.0266491-4.51332205l2.04532822 5.32665335c-2.05866152 1.96932841-4.60798848 3.53599116-7.63464758 4.69865492-4.35465578 1.67332915-8.18931286 1.63066259-11.51063789-.12399969-3.32265836-1.75599561-5.9333185-5.10798723-7.83331375-10.04930821-1.19466368-3.11065889-1.67599581-6.0533182-1.44399639-8.83064459.23333275-2.77599306 1.17066374-5.19865367 2.80799298-7.26398184 1.64399589-2.0666615 3.8933236-3.64532422 6.74531647-4.74132148 2.9066594-1.11733054 6.0933181-1.53066284 9.56930941-1.2533302l-.0666665 5.94398514c-1.32266336-.10133308-2.62399344-.13066634-3.91065689-.0933331a10.71063989 10.71063989 0 0 0-3.56132443.68666495zm47.7598806 3.93599016-5.72131903 3.63199092-7.41598146-11.68263746-10.72130653 6.80531632 7.41598146 11.68263746-5.73998565 3.64265756-17.19062369-27.0799323 5.73998565-3.64399089 6.74131648 10.61997345 10.7199732-6.80664965-6.73998315-10.61997345 5.7199857-3.63065759zm20.77461473-37.733239c3.45465803 4.0399899 5.11065389 7.99331335 4.96265426 11.87463698-.15066629 3.88132363-2.0933281 7.41464813-5.8266521 10.60664015s-7.52531452 4.56398859-11.38263821 4.10798973c-3.85732369-.45466553-7.51464788-2.71599321-10.98530587-6.7733164-3.46932466-4.05865652-5.1199872-8.01597996-4.93998765-11.87330365.1733329-3.8533237 2.13866132-7.38531487 5.88265196-10.5866402 3.74399064-3.20265866 7.5333145-4.57865522 11.35730494-4.11598971 3.83065709.45866552 7.47198132 2.71332655 10.933306 6.7599831zm-17.78928886 15.21196197c2.33066084 2.72532652 4.5999885 4.33065584 6.8133163 4.83332125 2.2133278.49199877 4.34932246-.14266631 6.40398399-1.89999525 4.12665635-3.52799118 3.8399904-8.03197992-.84533122-13.51196622-4.69598826-5.4933196-9.09064394-6.48398379-13.19330035-2.97599256-2.05999485 1.76266226-3.0133258 3.77999055-2.87865947 6.05865152.14133298 2.27332765 1.3733299 4.77465473 3.69999075 7.49598126zm39.52523452-42.22389444c4.20798948 3.24799188 6.63865007 6.77864972 7.28664845 10.60797348.64799838 3.83065709-.53199867 7.68664745-3.5333245 11.57463773-2.9999925 3.88799028-6.43331725 6.00665165-10.30130758 6.35065079-3.86932366.34266581-7.91198022-1.12266386-12.13863632-4.38398904-4.2266561-3.26265851-6.65198337-6.799983-7.26531517-10.61064014-.61733179-3.80799048.58266521-7.6666475 3.59332435-11.56663775 3.00932581-3.89999025 6.43598391-6.02265161 10.27464098-6.35198412 3.84265706-.33466583 7.86931366 1.12666385 12.08396979 4.37998905zm-14.30129758 18.52928701c2.8399929 2.19066119 5.38931986 3.29865842 7.65731419 3.33732499 2.266661.02933326 4.22932276-1.03066409 5.8799853-3.16932541 3.31732504-4.29732259 2.11599471-8.64931171-3.59199102-13.0533007-5.7199857-4.41598896-10.22397444-4.48665545-13.52263286-.2133328-1.65599586 2.14532797-2.17732789 4.31598921-1.57866272 6.51865037.60399849 2.19599451 2.32266086 4.39332235 5.15598711 6.57998355zm32.76791808-16.53195867-27.94126348-15.75196062 3.33865832-5.92265186 23.05060904 12.99463418 6.39065069-11.33597166 4.89198777 2.75865977z"/></svg>